<?xml version="1.0" encoding="utf-8"?>
<svg version="1.1" xmlns="http://www.w3.org/2000/svg"  x="0px" y="0px"
	 viewBox="0 0 64 64" style="enable-background:new 0 0 64 64;" xml:space="preserve">
<style type="text/css">
	.st0{fill:#222222;}
	.st1{opacity:0.2;}
	.st2{fill:#231F20;}
	.st3{fill:#FFFFFF;}
</style>
	<g id="Layer_1" transform="matrix(1.7736738,0,0,1.6838999,-24.669437,-23.731325)">
		<g class="st1" id="g4202" style="opacity:0.2">
			<g id="g4204">
				<path class="st2" d="m 47,18 -4,0 c -0.2,0 -0.5,0.1 -0.7,0.2 L 28.5,30.4 C 27.8,30.2 26.7,30 26,30 c -5.5,0 -10,4.5 -10,10 0,5.5 4.5,10 10,10 5.5,0 10,-4.5 10,-10 0,-1.6 -0.3,-2.7 -0.7,-3.6 l 3.4,-1.2 c 0.4,-0.1 0.7,-0.5 0.7,-1 l -0.1,-3.8 3.8,-0.3 c 0.5,0 0.9,-0.5 0.9,-1 l 0.1,-4.6 3,-0.7 c 0.5,-0.1 0.8,-0.5 0.8,-1 l 0,-4 C 48,18.4 47.6,18 47,18 Z M 23,40 c 1.2,0 2.2,0.7 2.7,1.7 0.2,0.4 0.3,0.8 0.3,1.3 0,1.7 -1.3,3 -3,3 -1.7,0 -3,-1.3 -3,-3 0,-1.7 1.3,-3 3,-3 z"
           id="path4206" style="fill:#231f20" />
			</g>
		</g>
		<g id="g4208">
			<g id="g4210">
				<path class="st3" d="m 47,16 -4,0 c -0.2,0 -0.5,0.1 -0.7,0.2 L 28.5,28.4 C 27.8,28.2 26.7,28 26,28 c -5.5,0 -10,4.5 -10,10 0,5.5 4.5,10 10,10 5.5,0 10,-4.5 10,-10 0,-1.6 -0.3,-2.7 -0.7,-3.6 l 3.4,-1.2 c 0.4,-0.1 0.7,-0.5 0.7,-1 l -0.1,-3.8 3.8,-0.3 c 0.5,0 0.9,-0.5 0.9,-1 l 0.1,-4.6 3,-0.7 c 0.5,-0.1 0.8,-0.5 0.8,-1 l 0,-4 C 48,16.4 47.6,16 47,16 Z M 23,38 c 1.2,0 2.2,0.7 2.7,1.7 0.2,0.4 0.3,0.8 0.3,1.3 0,1.7 -1.3,3 -3,3 -1.7,0 -3,-1.3 -3,-3 0,-1.7 1.3,-3 3,-3 z"
           id="path4212" style="fill:#ffffff" />
		</g>
	</g>
</g>
</svg>